<svg width="104" height="60" viewBox="0 0 104 60" fill="none" xmlns="http://www.w3.org/2000/svg">
<path fill-rule="evenodd" clip-rule="evenodd" d="M27.25 30.1113C27.25 16.5918 38.0413 5.59273 51.4801 5.25786C51.5605 5.25265 51.6416 5.25 51.7233 5.25C51.7594 5.25 51.7954 5.25052 51.8313 5.25154C51.9245 5.25052 52.0178 5.25 52.1113 5.25C65.8417 5.25 76.9725 16.3808 76.9725 30.1113C76.9725 31.2025 76.9022 32.2773 76.7659 33.3314C76.1874 32.7878 75.5663 32.289 74.9081 31.8406C74.9508 31.2698 74.9725 30.693 74.9725 30.1113C74.9725 28.1469 74.7248 26.2404 74.2588 24.4213C74.2473 24.4217 74.2358 24.4219 74.2242 24.4219H60.4528C60.5996 26.25 60.677 28.1553 60.677 30.1113C60.677 30.1839 60.6769 30.2564 60.6767 30.3289C59.9794 30.6123 59.3079 30.9461 58.6668 31.3257C58.6736 30.9236 58.677 30.5187 58.677 30.1113C58.677 28.1456 58.5967 26.24 58.4462 24.4219H45.0004C44.8498 26.24 44.7695 28.1456 44.7695 30.1113C44.7695 32.1489 44.8558 34.122 45.0172 36H53.7443C53.3225 36.6347 52.9473 37.303 52.6234 38H45.2214C45.6143 41.31 46.2461 44.2625 47.0478 46.6675C47.7481 48.7683 48.5599 50.3962 49.4127 51.4784C50.2142 52.4953 50.9521 52.913 51.5827 52.9665C51.6566 52.9682 51.7306 52.9695 51.8046 52.9705C52.2748 52.9473 52.8068 52.7213 53.3818 52.192C53.9399 53.1192 54.5944 53.9818 55.3314 54.7659C54.2773 54.9022 53.2025 54.9725 52.1113 54.9725C52.0178 54.9725 51.9245 54.972 51.8313 54.971C51.7954 54.972 51.7594 54.9725 51.7233 54.9725C51.6416 54.9725 51.5605 54.9699 51.4801 54.9647C38.0413 54.6298 27.25 43.6307 27.25 30.1113ZM30.5753 22.4219C33.2547 14.9185 39.744 9.22546 47.7136 7.67257C46.718 8.99232 45.8593 10.7961 45.1504 12.9226C44.2647 15.5799 43.587 18.8206 43.1852 22.4219H30.5753ZM29.9657 24.4137C29.4984 26.2351 29.25 28.1442 29.25 30.1113C29.25 32.1484 29.5164 34.1232 30.0164 36.0029C30.0419 36.001 30.0677 36 30.0938 36H43.0101C42.8527 34.1111 42.7695 32.1385 42.7695 30.1113C42.7695 28.1553 42.8469 26.25 42.9938 24.4219H30.0938C30.0504 24.4219 30.0076 24.4191 29.9657 24.4137ZM47.7136 52.5499C39.8148 51.0108 33.37 45.4047 30.6476 38H43.2078C43.6121 41.5215 44.281 44.6917 45.1504 47.2999C45.8593 49.4264 46.718 51.2302 47.7136 52.5499ZM73.6472 22.4219H60.2613C59.8595 18.8206 59.1819 15.5799 58.2961 12.9226C57.5589 10.711 56.6596 8.84847 55.6128 7.51647C63.99 8.80408 70.8681 14.6392 73.6472 22.4219ZM45.1981 22.4219C45.5891 19.031 46.2301 16.0082 47.0478 13.555C47.7481 11.4542 48.5599 9.82631 49.4127 8.74411C50.2142 7.72718 50.9521 7.30948 51.5827 7.25599C51.6566 7.25431 51.7306 7.25299 51.8046 7.25201C52.4481 7.28379 53.2072 7.69518 54.0338 8.74411C54.8867 9.82631 55.6985 11.4542 56.3987 13.555C57.2165 16.0082 57.8575 19.031 58.2485 22.4219H45.1981Z" fill="#616161"/>
<path fill-rule="evenodd" clip-rule="evenodd" d="M66.3985 55.9963C72.8027 55.9963 77.9943 50.8047 77.9943 44.4005C77.9943 37.9963 72.8027 32.8047 66.3985 32.8047C59.9943 32.8047 54.8027 37.9963 54.8027 44.4005C54.8027 50.8047 59.9943 55.9963 66.3985 55.9963ZM60.3597 51.5947C58.3092 49.8718 57.0059 47.2883 57.0059 44.4005C57.0059 39.2131 61.2111 35.0079 66.3985 35.0079C68.4467 35.0079 70.3417 35.6634 71.8852 36.7762L60.3597 51.5947ZM62.2956 52.8519C63.5353 53.4549 64.9274 53.7931 66.3985 53.7931C71.5859 53.7931 75.7911 49.5879 75.7911 44.4005C75.7911 42.0931 74.9591 39.9801 73.5788 38.345L62.2956 52.8519Z" fill="#F63F3F"/>
</svg>
